<?xml version="1.0" encoding="UTF-8" standalone="no"?>
<!-- Created with Inkscape (http://www.inkscape.org/) -->

<svg
   version="1.1"
   id="svg1"
   width="203"
   height="203"
   viewBox="0 0 203 203"
   sodipodi:docname="telephone.svg"
   inkscape:version="1.4.3 (0d15f75, 2025-12-25)"
   xmlns:inkscape="http://www.inkscape.org/namespaces/inkscape"
   xmlns:sodipodi="http://sodipodi.sourceforge.net/DTD/sodipodi-0.dtd"
   xmlns="http://www.w3.org/2000/svg"
   xmlns:svg="http://www.w3.org/2000/svg">
  <defs
     id="defs1" />
  <sodipodi:namedview
     id="namedview1"
     pagecolor="#505050"
     bordercolor="#eeeeee"
     borderopacity="1"
     inkscape:showpageshadow="0"
     inkscape:pageopacity="0"
     inkscape:pagecheckerboard="0"
     inkscape:deskcolor="#505050"
     inkscape:zoom="3.9753695"
     inkscape:cx="101.62577"
     inkscape:cy="101.5"
     inkscape:window-width="1920"
     inkscape:window-height="1009"
     inkscape:window-x="-8"
     inkscape:window-y="-8"
     inkscape:window-maximized="1"
     inkscape:current-layer="g1" />
  <g
     inkscape:groupmode="layer"
     inkscape:label="Image"
     id="g1">
    <path
       style="fill:#ffffff"
       d="M 14.382941,197.41671 C 9.3845857,194.95086 9,192.92782 9,169.10083 9,139.3272 8.3776259,140.17116 35.960737,132.54126 c 24.297783,-6.72113 26.193576,-6.31872 41.862929,8.88615 9.809755,9.51897 9.809755,9.51897 17.243045,5.14542 18.055179,-10.62319 37.236269,-30.33755 48.286149,-49.628607 2.60954,-4.555777 2.60954,-4.555777 -6.91986,-14.5 -15.55265,-16.229662 -15.8902,-17.868557 -8.83815,-42.91059 7.49226,-26.605215 7.31742,-26.479101 36.75402,-26.511671 29.32512,-0.03245 29.28924,-0.06318 28.34578,24.277739 C 189.44076,121.24964 122.73886,190.4645 37.849792,197.97829 22.516379,199.3355 18.056007,199.22876 14.382941,197.41671 Z M 54.299467,193.0212 C 128.5495,178.4973 182.62644,118.19942 190.07647,41.624607 c 2.48776,-25.57035 2.43162,-25.626751 -25.50078,-25.618018 -28.64088,0.009 -27.25593,-1.020689 -34.68467,25.786487 -2.68859,9.701994 -4.70577,18.33005 -4.48262,19.173457 0.22314,0.843407 0.70169,2.852973 1.06345,4.465702 0.42019,1.873268 4.60695,6.977767 11.59294,14.134135 12.67634,12.985494 12.243,11.52278 6.3124,21.30699 -11.8717,19.58573 -27.43371,35.39159 -46.843378,47.57735 -10.998264,6.90492 -8.824217,7.39076 -22.026351,-4.92228 C 59.640785,128.7303 59.632333,128.72861 35.5,135.52213 c -24.775041,6.97445 -24.496234,6.57835 -24.498446,34.80479 -0.0021,26.32508 -0.06692,26.23985 19.318371,25.38676 7.249041,-0.31901 18.039835,-1.53063 23.979542,-2.69248 z"
       id="path3" />
    <path
       style="fill:#ffffff;fill-rule:evenodd;stroke-width:0.251549"
       d="m 160.35213,14.351555 c -5.71932,0.164842 -11.53255,-0.36081 -17.17902,0.747277 -3.98586,1.022369 -7.46606,3.78403 -9.11668,7.590195 -3.06739,6.748744 -4.56824,14.071322 -6.61118,21.166192 -1.31561,5.389514 -3.0189,10.72648 -3.81631,16.219287 0.18042,3.839198 1.35506,7.711867 3.97123,10.608783 5.53542,6.950365 12.28181,12.821059 17.94251,19.654716 1.95192,2.157631 0.0431,4.944013 -1.14278,6.936266 -11.23948,19.130269 -26.6646,35.931389 -45.409454,48.019629 -3.428064,2.0943 -6.63806,4.77231 -10.505157,5.99953 -2.28413,0.12122 -3.781367,-2.07859 -5.457472,-3.30968 -5.903728,-5.16741 -11.290506,-10.98964 -17.673731,-15.61103 -4.840961,-3.51918 -11.246031,-3.60574 -16.841987,-2.16912 -9.237546,2.30115 -18.475872,4.705 -27.474845,7.82406 -4.337564,1.54263 -8.619999,4.3941 -10.123862,8.96634 -2.2747009,6.44526 -1.4577497,13.4124 -1.7227355,20.11306 0.070618,6.81203 -0.1851972,13.65447 0.4281428,20.4443 0.4458727,3.74961 2.0405837,8.02566 5.9281047,9.36577 4.56816,1.47971 9.478879,0.78714 14.19188,0.71043 14.153511,-0.78619 28.307943,-2.74167 41.865705,-6.99227 30.741011,-9.27957 58.838461,-27.34897 79.628381,-51.86974 22.45215,-26.1705 36.41674,-59.276157 40.30971,-93.483493 0.76657,-7.380535 1.74465,-14.849498 0.98325,-22.267294 -0.53599,-4.013187 -3.99933,-7.004552 -7.83781,-7.811774 -5.42541,-1.298651 -11.07175,-0.649222 -16.59535,-0.849768 -2.58018,-0.0018 -5.16036,-0.0034 -7.74054,-0.0017 z"
       id="path9" />
  </g>
</svg>
